# xmcd
#
# Track frame offsets: 
#        150
#        14100
#        32240
#        50048
#        65926
#        81082
#        98068
#        113680
#        133660
#        150433
#        168760
#        184089
#        201238
#
# Disc length: 2990 seconds
#
# Revision: 0
# Processed by: cddbd v1.5.2PL0 Copyright (c) Steve Scherf et al.
# Submitted via: ExactAudioCopy v0.99pb5
#
DISCID=b20bac0d
DTITLE=Tuba Skinny - Tuba Skinny
DYEAR=2010
DGENRE=Dixieland
TTITLE0=He Likes It Slow
TTITLE1=At the Jazz Band Ball
TTITLE2=Kitchen Man
TTITLE3=Jelly Bean Blues
TTITLE4=Ain't Gonna Give Nobody None of My Jellyroll
TTITLE5=Do Your Duty
TTITLE6=Lonesome Road
TTITLE7=Weeping Willow Blues
TTITLE8=Vine St. Blues
TTITLE9=Peace in the Valley
TTITLE10=Six Feet Down
TTITLE11=You Can Have My Husband
TTITLE12=Turtle Blues
EXTD=
EXTT0=
EXTT1=
EXTT2=
EXTT3=
EXTT4=
EXTT5=
EXTT6=
EXTT7=
EXTT8=
EXTT9=
EXTT10=
EXTT11=
EXTT12=
PLAYORDER=
